<?xml version="1.0" standalone="no"?>
<!DOCTYPE svg PUBLIC "-//W3C//DTD SVG 20010904//EN"
 "http://www.w3.org/TR/2001/REC-SVG-20010904/DTD/svg10.dtd">
<svg version="1.0" xmlns="http://www.w3.org/2000/svg"
 width="512.000000pt" height="512.000000pt" viewBox="0 0 512.000000 512.000000"
 preserveAspectRatio="xMidYMid meet">

<g transform="translate(0.000000,512.000000) scale(0.100000,-0.100000)"
fill="#000000" stroke="none">
<path d="M1390 4745 c-396 -49 -766 -212 -1071 -470 -127 -109 -244 -239 -282
-315 -29 -58 -32 -74 -32 -150 0 -76 4 -93 33 -152 38 -77 92 -130 171 -167
47 -22 70 -26 141 -26 125 0 187 33 304 160 154 167 368 307 568 370 l73 23 3
-676 c3 -677 -3 -901 -33 -1160 -48 -411 -154 -849 -296 -1222 -59 -154 -63
-171 -63 -250 -1 -72 3 -94 25 -141 37 -79 90 -133 167 -171 59 -29 76 -33
152 -33 76 0 93 3 152 33 127 62 162 125 293 517 168 505 263 999 295 1535 5
91 10 490 10 888 l0 722 710 0 710 0 2 -1487 3 -1488 23 -80 c84 -299 322
-535 619 -617 64 -18 105 -22 228 -21 130 0 163 3 248 26 128 34 263 99 363
175 159 121 209 202 209 342 0 71 -4 94 -26 141 -37 79 -90 133 -167 171 -59
29 -76 33 -152 33 -101 0 -163 -24 -249 -98 -70 -60 -128 -87 -204 -93 -82 -8
-140 21 -174 86 l-23 43 0 1433 0 1433 368 3 367 3 56 26 c79 37 133 90 171
167 29 59 33 76 33 152 0 76 -4 93 -33 152 -38 77 -92 130 -171 167 l-56 26
-1680 1 c-1331 2 -1702 -1 -1785 -11z"/>
</g>
</svg>
